<!DOCTYPE svg PUBLIC "-//W3C//DTD SVG 1.1//EN" "http://www.w3.org/Graphics/SVG/1.1/DTD/svg11.dtd">
<!-- Uploaded to: SVG Repo, www.svgrepo.com, Transformed by: SVG Repo Mixer Tools -->
<svg height="800px" width="800px" version="1.1" id="_x32_" xmlns="http://www.w3.org/2000/svg" xmlns:xlink="http://www.w3.org/1999/xlink" viewBox="0 0 512 512" xml:space="preserve" fill="#ffffff" stroke="#ffffff">
<g id="SVGRepo_bgCarrier" stroke-width="0"/>
<g id="SVGRepo_tracerCarrier" stroke-linecap="round" stroke-linejoin="round"/>
<g id="SVGRepo_iconCarrier"> <style type="text/css"> .st0{fill:#ffffff;} </style> <g> <path class="st0" d="M502.642,303.802l-36.373-30.11c-6.419-3.575-10.414-10.359-10.414-17.692c0-7.34,3.995-14.118,10.414-17.686 l36.373-30.124c7.299-4.043,10.888-12.546,8.741-20.624c-2.167-8.064-9.534-13.63-17.882-13.494l-46.563-7.902 c-7.34,0.135-14.185-3.731-17.862-10.109c-3.663-6.358-3.602-14.212,0.183-20.502l16.433-44.275 c4.286-7.164,3.162-16.331-2.729-22.228c-5.904-5.911-15.086-7.042-22.249-2.742l-44.254,16.44 c-6.297,3.771-14.164,3.839-20.522,0.155c-6.372-3.67-10.245-10.501-10.116-17.841l-7.895-46.563 c0.136-8.342-5.437-15.736-13.487-17.882c-8.071-2.16-16.596,1.435-20.638,8.748l-30.11,36.366 C270.11,52.149,263.346,56.144,256,56.144c-7.34,0-14.117-3.995-17.686-10.407l-30.11-36.366 c-4.056-7.313-12.56-10.908-20.638-8.748c-8.064,2.146-13.63,9.54-13.481,17.882l-7.895,46.563 c0.128,7.34-3.751,14.171-10.13,17.841c-6.344,3.684-14.212,3.616-20.515-0.155l-44.262-16.44 c-7.164-4.3-16.332-3.169-22.242,2.742c-5.898,5.898-7.015,15.065-2.729,22.228l16.44,44.275c3.772,6.29,3.839,14.144,0.156,20.502 c-3.67,6.378-10.502,10.244-17.828,10.109l-46.577,7.902c-8.342-0.136-15.722,5.43-17.882,13.494 c-2.16,8.078,1.435,16.582,8.734,20.624l36.38,30.124c6.412,3.568,10.407,10.346,10.407,17.686c0,7.333-3.995,14.117-10.407,17.692 l-36.38,30.11c-7.299,4.056-10.894,12.567-8.734,20.638c2.16,8.05,9.54,13.622,17.882,13.487l46.577,7.881 c7.326-0.115,14.158,3.758,17.828,10.129c3.683,6.358,3.616,14.219-0.156,20.509l-16.44,44.268 c-4.286,7.164-3.168,16.324,2.729,22.235c5.91,5.904,15.078,7.042,22.242,2.742l44.262-16.44 c6.303-3.778,14.171-3.839,20.515-0.176c6.378,3.676,10.258,10.508,10.13,17.861l7.895,46.563 c-0.149,8.348,5.416,15.729,13.481,17.882c8.077,2.146,16.582-1.442,20.638-8.741l30.11-36.373 c3.569-6.419,10.346-10.414,17.686-10.414c7.346,0,14.111,3.994,17.692,10.414l30.11,36.373 c4.042,7.298,12.567,10.887,20.638,8.741c8.05-2.153,13.623-9.534,13.487-17.882l7.895-46.563 c-0.129-7.353,3.744-14.185,10.116-17.861c6.358-3.664,14.225-3.602,20.522,0.176l44.254,16.44 c7.164,4.3,16.345,3.162,22.249-2.742c5.89-5.911,7.014-15.072,2.729-22.235l-16.433-44.268c-3.785-6.29-3.846-14.151-0.183-20.509 c3.677-6.371,10.522-10.244,17.862-10.129l46.563-7.881c8.348,0.135,15.715-5.437,17.882-13.487 C513.53,316.369,509.941,307.858,502.642,303.802z M183.456,355.477c-18.945,7.584-36.278,17.245-51.242,27.28 c6.5-33.726,25.269-62.787,51.242-81.894V355.477z M184.35,227.427l-19.324,19.317c-2.099,2.106-4.902,3.27-7.895,3.27 c-2.978,0-5.789-1.158-7.901-3.264c-4.347-4.367-4.347-11.456-0.014-15.81l19.338-19.324l-20.408-20.387 c-2.119-2.12-3.277-4.936-3.277-7.929c0.007-2.979,1.171-5.782,3.284-7.881c2.106-2.106,4.909-3.27,7.902-3.27 c2.992,0,5.796,1.165,7.908,3.278l20.387,20.387l20.394-20.387c2.113-2.113,4.916-3.278,7.902-3.278 c2.992,0,5.796,1.165,7.901,3.284c2.1,2.086,3.264,4.889,3.271,7.868c0,2.993-1.158,5.81-3.277,7.929l-20.388,20.387l19.318,19.317 c4.354,4.36,4.354,11.45,0,15.81c-2.112,2.113-4.922,3.27-7.909,3.27c-2.979,0-5.789-1.158-7.901-3.264L184.35,227.427z M249.425,340.846c-16.426,0.643-32.311,3.487-47.349,8.036v-59.38c14.462-7.164,30.483-11.429,47.349-12.33V340.846z M315.42,350.711c-14.998-4.983-30.875-8.416-47.376-9.567v-63.64c17.035,1.679,33.015,6.947,47.376,14.998V350.711z M327.649,227.427l-19.311,19.317c-2.112,2.113-4.922,3.27-7.901,3.27c-2.986,0-5.789-1.165-7.895-3.27 c-4.36-4.36-4.36-11.45,0-15.81l19.304-19.317l-20.38-20.387c-2.119-2.12-3.284-4.936-3.277-7.929c0-2.979,1.171-5.782,3.284-7.881 c2.099-2.106,4.902-3.27,7.888-3.27c2.979,0,5.79,1.165,7.902,3.278l20.387,20.387l20.401-20.387 c2.099-2.113,4.902-3.278,7.894-3.278c2.993,0,5.796,1.165,7.909,3.284c2.099,2.086,3.271,4.889,3.271,7.868 c0.006,2.993-1.158,5.81-3.278,7.929l-20.394,20.387l19.317,19.317c4.36,4.36,4.36,11.45,0,15.81 c-2.106,2.106-4.916,3.27-7.894,3.27c-2.979,0-5.789-1.158-7.902-3.27L327.649,227.427z M334.027,357.759V305.23 c23.089,19.034,39.738,46.252,45.75,77.527C366.277,373.691,350.826,364.963,334.027,357.759z"/> </g> </g>
</svg>